<svg width="51" height="55" viewBox="0 0 51 55" fill="none" xmlns="http://www.w3.org/2000/svg">
<path d="M7.49429 43.9867C3.47617 43.9867 1.23557 45.1779 0.772483 47.5561C1.39128 49.1147 2.31745 49.8961 3.55301 49.8961C5.02114 49.8961 6.33557 47.9256 7.49429 43.9847M16.574 45.9793C15.2596 46.7466 13.9471 48.0522 12.6327 49.8941L12.6327 50.6614C12.6327 52.5053 13.4315 53.4252 15.027 53.4252C16.1089 53.0677 16.8955 52.4149 17.3849 51.4668L17.3849 46.7466C17.3081 46.2344 17.0371 45.9793 16.574 45.9793ZM17.3849 33.0056C13.4194 34.2329 11.4356 35.2834 11.4356 36.1531L11.4356 37.7279C11.4356 38.1376 11.9634 38.6619 13.019 39.3006L15.029 39.3006C15.5973 39.1982 16.5093 37.2277 17.7732 33.3893C17.5143 33.3893 17.3869 33.2607 17.3869 33.0056M25.3079 47.5541C24.406 47.9638 23.6072 49.6651 22.9116 52.658C22.9116 54.0158 23.312 54.7951 24.1087 55L26.4666 55C27.2634 54.7429 27.6638 53.9636 27.6638 52.658C27.6638 50.9948 26.8771 49.2935 25.3059 47.5541M25.3059 33.7729C23.7083 35.8719 22.9096 37.8424 22.9096 39.6843C22.9096 40.094 23.4374 40.6183 24.4929 41.259L26.4646 41.259C27.2613 41.0039 27.6617 40.2105 27.6617 38.8788C27.6617 37.2418 26.8751 35.5405 25.3038 33.7749M25.6901 14.1226L24.8772 14.1226C24.6203 14.1226 24.0905 14.6469 23.2938 15.6974L23.7184 17.6939C23.7184 17.949 23.5769 18.3327 23.2938 18.8449L23.7184 21.2231L23.7184 21.9904L23.2938 23.9488L19.3525 23.9488C16.9825 23.9488 15.7975 24.8707 15.7975 26.7126L15.7975 28.671C15.7975 29.2073 16.0543 29.4765 16.5699 29.4765L33.9993 29.4765C34.515 29.4765 34.7718 29.2073 34.7718 28.671L34.7718 25.5235C34.7718 24.8326 33.8578 24.3083 32.0277 23.9488C31.7446 23.9488 31.603 24.0894 31.603 24.3706L29.6334 23.9488L27.2755 23.9488L27.2755 15.6974C27.2755 15.2876 26.7477 14.7633 25.6921 14.1226M33.9973 45.9813L33.6111 45.9813L33.1864 48.707L33.1864 51.4688C33.3906 52.2381 34.3188 52.8889 35.969 53.4272C37.2814 53.0697 37.9386 52.1498 37.9386 50.6634L37.9386 49.8961C37.9386 49.5386 36.6262 48.233 33.9973 45.9813M33.1864 33.0076C33.1864 33.2647 33.057 33.3913 32.8002 33.3913C34.064 37.3302 35.1196 39.3026 35.969 39.3026L36.7799 39.3026C38.1469 39.3026 38.9315 38.9069 39.1378 38.1115L39.1378 36.1531C39.1378 35.2834 37.154 34.2329 33.1864 33.0056M43.077 43.9827L43.077 44.4045C44.442 48.0642 45.7686 49.8921 47.0567 49.8921C48.8848 49.8921 49.7988 48.9701 49.7988 47.1282L49.7988 46.7446C49.7988 45.439 47.5582 44.519 43.077 43.9807M50.2275 6.75325e-08L0.772479 4.39103e-06C0.256817 0.0763319 -1.81539e-06 0.333435 -1.77747e-06 0.767297L-1.39817e-06 5.10591C-1.23715e-06 6.94782 0.914034 7.86977 2.74413 7.86977L11.8623 7.86977L11.8623 15.3157C16.4466 19.2586 19.4738 21.2271 20.9399 21.2271L21.7529 21.2271C22.2665 21.2271 22.5253 20.9579 22.5253 20.4216L22.5253 18.8489C22.3454 18.2342 19.9733 16.4044 15.4153 13.3593L15.8015 10.5975L15.8015 9.02473L15.4153 8.25743L16.1877 7.87379L35.1965 7.87379L35.1965 13.3613C30.4827 16.6635 28.1006 18.4934 28.05 18.8509L28.05 20.04C28.05 20.4236 28.4484 20.8193 29.2471 21.2291L29.6334 21.2291C35.969 18.415 39.1377 16.0469 39.1377 14.1286C38.8809 13.6948 38.7495 13.1806 38.7495 12.594C38.7495 12.3128 38.8789 11.9151 39.1377 11.4049C38.8809 10.943 38.7495 10.4207 38.7495 9.83219L38.7495 8.64108C38.7495 8.12888 39.0083 7.87379 39.524 7.87379L49.4166 7.87379C49.8291 7.87379 50.3549 7.34753 51 6.30104L51 0.767292C50.9232 0.255095 50.6643 2.93466e-08 50.2275 6.75325e-08Z" fill="#FEBF44"/>
</svg>
