<svg width="46" height="55" viewBox="0 0 46 55" fill="none" xmlns="http://www.w3.org/2000/svg">
<path d="M19.0055 3.1117L17.3068 3.1117C12.4398 3.1117 9.09466 6.65481 7.26326 13.743L7.26326 15.1251L7.95883 15.4706C8.34481 15.4706 8.80919 13.8708 9.34997 10.6733C11.5915 6.2973 14.81 4.11032 19.0055 4.11032L19.0055 3.1117ZM18.6577 5.83594C14.3315 5.83594 11.7965 8.81782 11.0487 14.7776C11.0487 15.2369 11.2819 15.4666 11.7443 15.4666C12.1564 15.4666 12.6207 13.8668 13.1334 10.6693C15.1417 8.13676 17.2143 6.87051 19.3513 6.87051L19.3513 6.52499C19.301 6.06562 19.0698 5.83394 18.6577 5.83394M18.6577 2.39034e-06L18.3079 2.42092e-06C10.7391 3.08261e-06 5.89826 4.34999 3.78542 13.048L3.43764 14.7756L4.47898 15.4646C5.30321 10.5534 6.92553 6.99634 9.34595 4.79737C12.5383 2.28884 15.8734 1.03657 19.3493 1.03657L19.3493 0.691047C19.299 0.231682 19.0678 2.35449e-06 18.6557 2.39051e-06M21.7838 24.0628L21.7838 26.8269C21.7838 27.6698 23.0583 29.4992 25.6074 32.3133C25.6074 33.2341 25.8265 33.6954 26.2627 33.6954C26.4939 33.2341 26.6105 32.8886 26.6105 32.6589C27.2538 32.6589 27.7182 34.2567 27.9997 37.4562C27.9997 40.1166 26.1602 42.2916 22.4773 43.9792L22.4773 41.255C22.4773 38.9022 21.5506 36.9449 19.6971 35.3831C18.6919 35.3831 17.8938 36.9949 17.3028 40.2184L17.3028 40.5659C17.3028 41.3848 17.9863 42.8688 19.3493 45.0178L19.0015 45.0178C16.9671 45.0178 14.6632 43.0725 12.088 39.1839L12.088 38.1473C12.088 35.2293 12.5504 32.3653 13.4792 29.5512C13.8651 29.5512 14.6753 30.2402 15.9116 31.6223L16.2594 31.6223C16.2594 29.0379 17.9843 26.5174 21.436 24.0628L21.7838 24.0628ZM19.3513 19.9185C13.1474 19.9185 8.4212 23.4756 5.17656 30.5877C4.71418 32.3273 4.48099 33.9251 4.48099 35.3851C4.48099 43.0605 8.75693 48.1135 17.3048 50.5442L20.3946 50.5442C27.1674 50.5442 32.0082 46.5277 34.9171 38.4928C34.9171 37.0089 35.0337 35.8704 35.2649 35.0775C35.2649 28.195 31.1197 23.2579 22.8271 20.264C20.5876 20.264 19.4277 20.1482 19.3513 19.9185ZM35.9605 35.3851C35.7293 35.8445 35.6127 36.192 35.6127 36.4217L35.9605 36.4217C35.9605 41.1791 33.0777 45.5411 27.3081 49.5076C24.8877 50.632 22.6985 51.1953 20.7424 51.1953L18.6577 51.1953C11.6277 51.1953 6.67022 46.8453 3.78743 38.1473L3.78743 34.732C3.78743 27.5419 7.83017 22.6048 15.9157 19.9165C16.3278 19.7128 17.4736 19.4951 19.3533 19.2654C23.6031 19.2654 27.4126 20.7493 30.788 23.7172C34.2377 27.2723 35.9625 31.1609 35.9625 35.3831M20.7424 8.25459L19.3513 8.25459C16.185 8.2546 14.3436 10.1979 13.8289 14.0885L13.8289 14.4341C13.8289 14.8954 14.0601 15.1251 14.5245 15.1251L23.8725 15.1251C33.5019 15.1251 39.1549 21.0869 40.8275 33.0084L40.8275 33.3539L39.7841 33.3539C39.3981 33.3539 38.8172 31.5125 38.0452 27.8295C33.7693 19.8206 27.6559 15.8181 19.6991 15.8181C10.7632 15.8181 4.42872 20.6275 0.695567 30.2462C0.464381 33.4717 0.231188 35.1854 1.96132e-06 35.3891C2.65468e-06 43.3201 4.26187 49.3957 12.7856 53.6199C15.3327 54.309 17.8717 54.7703 20.3946 55C26.0597 55 31.3629 52.0201 36.3083 46.0584C36.3083 45.7508 37.1184 44.153 38.7408 41.261L40.4797 41.6065L41.521 41.6065C44.5084 40.8396 46 39.3416 46 37.1147C46 35.9643 45.0732 34.5962 43.2197 33.0104C43.2197 26.2557 40.0012 20.4098 33.5642 15.4706C30.6794 13.9367 28.3635 13.1299 26.6125 13.052L25.6074 13.052C24.6545 9.85438 23.0322 8.25459 20.7404 8.25459" fill="#FEBF44"/>
</svg>
