<svg width="56" height="55" viewBox="0 0 56 55" fill="none" xmlns="http://www.w3.org/2000/svg">
<path d="M37.6962 30.3292L37.3476 30.3292C36.8278 32.8291 35.0892 35.1749 32.1296 37.3666C29.7142 38.4374 27.625 38.9718 25.8578 38.9718C24.4819 38.8437 23.2243 38.6015 22.0808 38.2452L22.0808 38.5895C24.2883 39.7624 26.2613 40.3488 28 40.3488C32.5699 40.3488 35.7374 37.7749 37.5025 32.6229C37.633 31.6042 37.6982 30.8396 37.6982 30.3292M39.8404 30.3292L39.8404 31.2098C39.8404 35.6713 37.3354 39.1399 32.3232 41.6118C30.7925 42.0701 29.2862 42.3644 27.8064 42.4925C23.0306 42.4925 19.3821 40.2608 16.8628 35.7994C16.396 34.5244 16.1616 33.3395 16.1616 32.2426L16.1616 31.5541C16.1616 27.8573 18.3691 24.1585 22.782 20.4636C23.5076 19.0105 23.8725 17.7095 23.8725 16.5627C23.8725 15.72 23.5076 14.433 22.782 12.6997L22.9777 12.6997C34.2188 17.4674 39.8404 23.3438 39.8404 30.3312M28.1957 5.12593L27.1032 5.12593C20.3014 5.12593 14.2517 8.41445 8.95625 14.9935C6.46342 18.9465 5.21803 23.1777 5.21803 27.6912C5.21803 36.2837 9.52697 42.9768 18.1469 47.7705C21.3389 49.1736 24.6898 49.8741 28.1936 49.8741C36.6587 49.8741 43.3544 45.8831 48.2891 37.903C49.9504 34.3342 50.782 31.0958 50.782 28.1875L50.782 27.3089C50.782 18.5882 46.3548 11.8311 37.5005 7.03739C34.3065 5.76242 31.2062 5.12593 28.1936 5.12593M53.1199 27.6912C53.1199 35.9275 49.1738 42.8487 41.2795 48.459C36.7626 50.9309 32.2702 52.1679 27.8043 52.1679C19.2374 52.1679 12.189 48.2288 6.65706 40.3488C4.13773 36.1156 2.87807 31.8964 2.87807 27.6892C2.87807 17.7696 7.83723 10.1838 17.7555 4.93178C21.5998 3.53071 24.9466 2.82818 27.8023 2.82818C37.3313 2.82818 44.822 7.22753 50.2724 16.0243C52.168 19.9492 53.1158 23.8382 53.1158 27.6892M28.7012 1.76453e-05L27.2988 1.77679e-05C19.0438 1.84896e-05 11.8506 3.58276 5.72556 10.7482C1.90784 15.7721 2.44945e-06 21.2923 2.97544e-06 27.3089C3.9541e-06 38.5034 5.50339 46.9679 16.5122 52.7043C20.173 54.2354 24.0681 55 28.1957 55C37.9326 55 45.8249 50.6527 51.8725 41.9581C54.6242 37.4446 56 32.8551 56 28.1875L56 26.8105C56 17.6835 51.5749 10.0977 42.7205 4.05511C38.0997 1.35105 33.4259 1.72323e-05 28.7012 1.76453e-05Z" fill="#FEBF44"/>
</svg>
