<svg width="12" height="12" viewBox="0 0 12 12" fill="none" xmlns="http://www.w3.org/2000/svg">
<path d="M4.2 6.6H5.4V7.8C5.4 7.95913 5.46321 8.11174 5.57574 8.22426C5.68826 8.33679 5.84087 8.4 6 8.4C6.15913 8.4 6.31174 8.33679 6.42426 8.22426C6.53679 8.11174 6.6 7.95913 6.6 7.8V6.6H7.8C7.95913 6.6 8.11174 6.53679 8.22426 6.42426C8.33679 6.31174 8.4 6.15913 8.4 6C8.4 5.84087 8.33679 5.68826 8.22426 5.57574C8.11174 5.46321 7.95913 5.4 7.8 5.4H6.6V4.2C6.6 4.04087 6.53679 3.88826 6.42426 3.77574C6.31174 3.66321 6.15913 3.6 6 3.6C5.84087 3.6 5.68826 3.66321 5.57574 3.77574C5.46321 3.88826 5.4 4.04087 5.4 4.2V5.4H4.2C4.04087 5.4 3.88826 5.46321 3.77574 5.57574C3.66321 5.68826 3.6 5.84087 3.6 6C3.6 6.15913 3.66321 6.31174 3.77574 6.42426C3.88826 6.53679 4.04087 6.6 4.2 6.6V6.6ZM11.4 0H0.6C0.44087 0 0.288258 0.0632141 0.175736 0.175736C0.0632141 0.288258 0 0.44087 0 0.6V11.4C0 11.5591 0.0632141 11.7117 0.175736 11.8243C0.288258 11.9368 0.44087 12 0.6 12H11.4C11.5591 12 11.7117 11.9368 11.8243 11.8243C11.9368 11.7117 12 11.5591 12 11.4V0.6C12 0.44087 11.9368 0.288258 11.8243 0.175736C11.7117 0.0632141 11.5591 0 11.4 0V0ZM10.8 10.8H1.2V1.2H10.8V10.8Z" fill="white"/>
</svg>
